<?xml version="1.0" standalone="no"?>
<!DOCTYPE svg PUBLIC "-//W3C//DTD SVG 20010904//EN"
 "http://www.w3.org/TR/2001/REC-SVG-20010904/DTD/svg10.dtd">
<svg version="1.0" xmlns="http://www.w3.org/2000/svg"
 width="464.000000pt" height="284.000000pt" viewBox="0 0 464.000000 284.000000"
 preserveAspectRatio="xMidYMid meet">
<metadata>
Created by potrace 1.16, written by Peter Selinger 2001-2019
</metadata>
<g transform="translate(0.000000,284.000000) scale(0.100000,-0.100000)"
fill="#000000" stroke="none">
<path d="M2199 2448 c-35 -51 -76 -112 -92 -134 -23 -33 -29 -52 -29 -94 1
-29 2 -54 4 -56 2 -2 39 44 82 101 44 58 85 110 91 115 9 8 24 5 51 -9 22 -11
62 -29 89 -41 28 -12 54 -25 59 -28 5 -3 6 0 2 6 -4 7 -3 12 2 12 5 0 9 7 9
15 0 8 -4 15 -8 15 -4 0 -3 15 1 34 8 36 12 32 -167 138 l-31 18 -63 -92z"/>
<path d="M2202 2178 c-33 -35 -72 -78 -87 -95 -32 -39 -45 -42 -45 -10 0 19
-16 31 -90 70 -49 26 -90 42 -90 37 0 -6 4 -10 9 -10 5 0 6 -15 1 -33 l-7 -34
88 -44 c80 -40 95 -54 90 -83 -1 -5 0 -15 4 -23 3 -10 31 9 92 66 48 45 95 81
103 81 9 0 49 -11 88 -24 102 -35 109 -33 106 27 -1 27 -4 49 -6 51 -21 12
-185 86 -193 86 -2 0 -30 -28 -63 -62z"/>
<path d="M2163 1884 c-80 -56 -93 -70 -93 -94 l0 -28 -57 14 c-125 30 -115 31
-111 -7 3 -31 7 -35 53 -50 77 -25 115 -30 115 -16 0 6 42 36 93 66 l92 54 75
-12 c41 -7 87 -14 101 -17 26 -5 27 -3 30 46 l4 50 -95 30 c-53 17 -100 30
-105 30 -6 -1 -52 -30 -102 -66z"/>
<path d="M2173 1642 c-98 -38 -97 -38 -205 -30 l-76 6 5 -36 c3 -20 6 -38 7
-39 1 -1 37 -6 80 -12 45 -5 82 -15 87 -23 7 -10 23 -10 92 5 49 10 129 17
189 17 58 0 107 2 109 4 2 2 2 27 1 54 l-4 50 -71 15 c-120 26 -121 25 -214
-11z"/>
<path d="M1909 1453 c-11 -2 -16 -14 -15 -32 1 -27 3 -29 60 -35 32 -3 74 -6
92 -6 19 0 33 -3 33 -7 -1 -5 -1 -23 0 -41 l1 -34 188 7 c103 4 188 8 189 9 2
2 5 16 8 32 11 56 3 59 -202 64 -186 5 -188 5 -191 28 -3 21 -8 22 -75 21 -40
-1 -79 -3 -88 -6z"/>
<path d="M1986 824 c-8 -20 -8 -538 0 -558 4 -10 18 -16 35 -16 l29 0 0 178
c0 97 4 183 8 190 7 9 46 12 163 10 l154 -3 3 -187 2 -188 30 0 30 0 0 191 c0
110 -4 198 -10 209 -20 38 -51 45 -215 50 l-160 5 -3 68 c-3 66 -3 67 -31 67
-17 0 -31 -7 -35 -16z"/>
<path d="M2664 827 c-3 -8 -4 -130 -2 -271 l3 -258 28 -24 c22 -19 39 -24 83
-24 53 0 54 0 54 30 0 29 -2 30 -45 30 -34 0 -47 5 -55 19 -6 12 -10 115 -10
265 l0 246 -25 0 c-14 0 -28 -6 -31 -13z"/>
<path d="M1297 694 c-4 -4 -7 -106 -7 -226 l0 -218 29 0 29 0 4 178 c2 97 7
183 11 190 11 17 298 17 315 0 8 -8 12 -65 12 -190 l0 -178 31 0 30 0 -3 195
-3 195 -28 27 -27 28 -193 3 c-106 2 -196 0 -200 -4z"/>
<path d="M1837 694 c-4 -4 -7 -106 -7 -226 l0 -218 30 0 30 0 -2 223 c-3 215
-4 222 -23 225 -12 2 -24 0 -28 -4z"/>
<path d="M2507 693 c-4 -3 -7 -105 -7 -225 l0 -219 33 3 32 3 3 209 c2 145 -1
213 -9 222 -12 15 -41 19 -52 7z"/>
<path d="M2963 693 c-12 -2 -34 -18 -48 -35 l-26 -31 3 -164 3 -165 28 -24
c27 -23 33 -24 197 -24 164 0 170 1 197 24 l28 24 0 171 0 171 -28 27 c-27 28
-28 28 -180 30 -83 0 -162 -1 -174 -4z m315 -217 c2 -113 -1 -151 -10 -158
-15 -9 -269 -11 -292 -2 -14 5 -16 28 -16 153 0 81 3 151 7 155 4 3 75 5 157
4 l151 -3 3 -149z"/>
</g>
</svg>
