<?xml version="1.0" standalone="no"?>
<!DOCTYPE svg PUBLIC "-//W3C//DTD SVG 20010904//EN"
 "http://www.w3.org/TR/2001/REC-SVG-20010904/DTD/svg10.dtd">
<svg version="1.0" xmlns="http://www.w3.org/2000/svg"
 width="469.000000pt" height="290.000000pt" viewBox="0 0 469.000000 290.000000"
 preserveAspectRatio="xMidYMid meet">
<metadata>
Created by potrace 1.16, written by Peter Selinger 2001-2019
</metadata>
<g transform="translate(0.000000,290.000000) scale(0.100000,-0.100000)"
fill="#000000" stroke="none">
<path d="M2246 2476 c-47 -69 -89 -134 -94 -143 -11 -25 -9 -98 3 -98 6 -1 47
48 93 107 46 59 85 108 86 108 2 0 42 -18 89 -40 46 -22 93 -40 103 -39 10 0
14 3 8 5 -13 6 -6 56 10 66 7 5 7 8 -3 8 -7 0 -11 6 -8 13 5 12 -28 35 -170
119 l-31 19 -86 -125z"/>
<path d="M2240 2204 c-47 -52 -88 -94 -92 -94 -5 0 -8 11 -8 24 0 19 -13 30
-67 59 -68 35 -134 59 -103 38 8 -6 10 -11 4 -11 -6 0 -9 -13 -6 -30 4 -26 14
-36 71 -65 87 -44 99 -54 105 -90 2 -16 5 -32 5 -33 1 -2 40 33 87 77 48 45
94 81 103 81 9 0 51 -11 94 -25 43 -14 82 -25 87 -25 6 0 10 18 10 40 0 25 5
40 12 40 8 0 8 4 -2 14 -17 15 -192 96 -206 95 -5 0 -47 -43 -94 -95z"/>
<path d="M2233 1943 c-78 -56 -93 -71 -93 -94 l0 -27 -76 19 c-80 21 -107 15
-102 -20 4 -23 27 -37 83 -50 28 -6 60 -13 73 -17 15 -4 22 -2 22 8 0 8 43 39
96 68 l96 53 95 -17 c52 -9 98 -14 101 -11 4 3 6 26 7 51 l0 44 -95 30 c-53
17 -100 30 -105 30 -6 -1 -52 -31 -102 -67z"/>
<path d="M2216 1695 c-50 -19 -92 -32 -96 -30 -3 2 -39 6 -81 9 l-75 6 1 -35
c1 -20 4 -38 7 -41 3 -2 40 -9 83 -13 45 -5 81 -15 86 -22 7 -11 23 -11 92 4
49 10 129 17 191 17 l106 0 1 35 c1 19 2 43 3 53 1 13 -14 21 -64 34 -97 24
-152 21 -254 -17z"/>
<path d="M1981 1511 c-8 -5 -15 -20 -15 -34 -1 -23 3 -25 58 -31 32 -3 74 -6
92 -6 33 0 34 -1 34 -41 l0 -41 188 7 c103 4 188 8 189 9 2 2 5 16 8 32 11 56
3 59 -202 64 -186 5 -188 5 -191 28 -3 20 -8 22 -75 22 -40 0 -78 -4 -86 -9z"/>
<path d="M2056 884 c-8 -20 -8 -538 0 -558 4 -10 18 -16 35 -16 l29 0 0 178
c0 97 4 183 8 190 7 9 46 12 163 10 l154 -3 3 -187 2 -188 30 0 30 0 0 191 c0
110 -4 198 -10 209 -20 38 -51 45 -215 50 l-160 5 -3 68 c-3 66 -3 67 -31 67
-17 0 -31 -7 -35 -16z"/>
<path d="M2734 887 c-3 -8 -4 -130 -2 -271 l3 -258 28 -24 c22 -19 39 -24 83
-24 53 0 54 0 54 30 0 29 -2 30 -45 30 -34 0 -47 5 -55 19 -6 12 -10 115 -10
265 l0 246 -25 0 c-14 0 -28 -6 -31 -13z"/>
<path d="M1367 754 c-4 -4 -7 -106 -7 -226 l0 -218 30 0 30 0 0 164 c0 91 4
176 10 190 l10 26 148 0 c102 0 152 -4 160 -12 8 -8 12 -65 12 -190 l0 -178
31 0 30 0 -3 195 -3 195 -28 27 -27 28 -193 3 c-106 2 -196 0 -200 -4z"/>
<path d="M1907 754 c-4 -4 -7 -106 -7 -226 l0 -218 30 0 30 0 -2 223 c-3 215
-4 222 -23 225 -12 2 -24 0 -28 -4z"/>
<path d="M2577 753 c-4 -3 -7 -105 -7 -225 l0 -219 33 3 32 3 3 209 c2 145 -1
213 -9 222 -12 15 -41 19 -52 7z"/>
<path d="M3033 753 c-12 -2 -34 -18 -48 -34 -24 -30 -25 -34 -25 -191 l0 -160
29 -29 29 -29 171 0 c165 0 171 1 198 24 l28 24 0 171 0 171 -28 27 c-27 28
-28 28 -180 30 -83 0 -162 -1 -174 -4z m315 -220 c3 -181 21 -165 -178 -161
l-135 3 -3 145 c-1 79 0 150 2 157 4 11 39 13 158 11 l153 -3 3 -152z"/>
</g>
</svg>
